<?xml version="1.0" encoding="UTF-8" standalone="yes"?>
<svg xmlns="http://www.w3.org/2000/svg" xmlns:xlink="http://www.w3.org/1999/xlink" viewBox="0 0 26 26" version="1.1" width="26" height="26" fill="#57A82F">
  <g id="surface1">
    <path style=" " d="M 23.820313 0.132813 C 22.472656 3.839844 21.648438 2.765625 18.65625 4.863281 C 15.917969 6.78125 15.535156 10.097656 14.835938 10.234375 C 8.597656 11.449219 7.96875 16.421875 7.300781 16.671875 C 4.421875 17.753906 1.089844 19.5625 0.101563 24.355469 C 1.300781 25.628906 7.300781 27.066406 11.261719 23.902344 C 14.859375 23.902344 20.171875 20.105469 20.980469 16.21875 C 25.929688 13.054688 27.585938 5.480469 23.820313 0.132813 Z M 8.101563 23.738281 C 6.714844 24.707031 3.90625 25.101563 3.101563 23.941406 C 2.296875 22.78125 3.230469 20.734375 4.617188 19.761719 C 6.003906 18.792969 7.566406 18.558594 8.367188 19.71875 C 9.171875 20.878906 9.488281 22.769531 8.101563 23.738281 Z M 16.648438 18.882813 C 15.441406 20.625 12.8125 20.953125 11.367188 19.949219 C 9.921875 18.941406 10.210938 16.980469 11.414063 15.234375 C 12.621094 13.488281 15.164063 12.3125 16.609375 13.316406 C 18.054688 14.324219 17.855469 17.136719 16.648438 18.882813 Z M 19.09375 11.785156 C 17.824219 11.097656 17.894531 9.445313 18.734375 7.886719 C 19.574219 6.328125 21.558594 5.105469 22.828125 5.792969 C 24.09375 6.484375 24.164063 8.820313 23.328125 10.382813 C 22.484375 11.9375 20.359375 12.472656 19.09375 11.785156 Z "/>
  </g>
</svg>
